<svg data-v-fde0c5aa="" xmlns="http://www.w3.org/2000/svg" viewBox="0 0 300 300" class="icon"><!----><defs data-v-fde0c5aa=""><!----></defs><rect data-v-fde0c5aa="" x="0" y="0" fill="transparent" width="300px" height="300px" class="logo-background-square"></rect><!----><defs data-v-fde0c5aa=""><linearGradient data-v-fde0c5aa="" gradientTransform="rotate(25)" id="89604ee4-5c0f-45ef-9756-e5f6a160e6a1" x1="0%" y1="0%" x2="100%" y2="0%"><stop data-v-fde0c5aa="" offset="0%" stop-color="#1E0B36" stop-opacity="1"></stop><stop data-v-fde0c5aa="" offset="100%" stop-color="#CA3782" stop-opacity="1"></stop></linearGradient></defs><g data-v-fde0c5aa="" id="ea9b46fc-88b7-41e7-975b-917115daaf8e" fill="url(#89604ee4-5c0f-45ef-9756-e5f6a160e6a1)" stroke="none" transform="matrix(2.750046158611671,0,0,2.750046158611671,-2490.0449836651924,-1500.0234989295782)"><path d="M948.502 583.042c.099.305.179.619.239.932a.845.845 0 0 0 1.66-.317 9.456 9.456 0 0 0-.29-1.133.843.843 0 0 0-1.063-.544.844.844 0 0 0-.546 1.062zM939.896 576.524a.845.845 0 0 0 .843.846c2.439.004 4.828 1.172 6.39 3.124a.843.843 0 0 0 1.187.131.845.845 0 0 0 .131-1.188c-1.879-2.348-4.76-3.752-7.706-3.757h-.001a.845.845 0 0 0-.844.844zM943.556 605.017h-3.795a.845.845 0 0 0 0 1.69h3.795a.845.845 0 1 0 0-1.69z"></path><path d="M999.752 611.283l-2.591-2.591a4.783 4.783 0 0 0-6.101-.544l-1.692-1.692c.255.034.427.057.436.057a.847.847 0 0 0 .837-.731l2.102-15.399a.846.846 0 0 0-.723-.951l-3.631-.497a4.783 4.783 0 0 0-5.187 3.26l-8.198-1.118a9.244 9.244 0 0 0-1.732-.074v-3.734a6.598 6.598 0 0 0-1.948-4.702 6.595 6.595 0 0 0-4.7-1.947 6.606 6.606 0 0 0-4.701 1.948 6.599 6.599 0 0 0-1.945 4.701v4.509h-3.267l-3.35-3.351c.245-.998.377-2.04.377-3.112 0-7.201-5.859-13.06-13.06-13.06-6.562 0-12.007 4.865-12.922 11.177l-6.016 6.017c-1.121 1.121-1.739 2.612-1.739 4.198s.618 3.077 1.739 4.198l13.642 13.642v1.413c0 5.123 4.167 9.29 9.289 9.29h1.326l.667.666a16.648 16.648 0 0 0 11.812 4.886c4.277 0 8.557-1.629 11.813-4.886l8.353-8.322 8.927 8.934a.844.844 0 0 0 1.195 0l10.989-10.99a.846.846 0 0 0-.001-1.195zm-20.266 1.706v-6.394a6.297 6.297 0 0 0 3.622-1.794 6.31 6.31 0 0 0 .969-1.247l3.652 3.651-7.014 7.013-1.229-1.229zm-9.834-8.269l-3.678-3.678.244-1.788.004-.023a6.398 6.398 0 0 0 2.802.648c.986 0 1.953-.235 2.839-.684l1.526 2.008a9.355 9.355 0 0 0-1.317 1.095l-2.42 2.422zm3.926-12.038a4.636 4.636 0 0 1-.009 1.757c-.239 1.218-.938 2.269-1.968 2.96s-2.268.941-3.485.702a4.633 4.633 0 0 1-1.459-.553 7.553 7.553 0 0 1 2.493-3.319 7.544 7.544 0 0 1 4.428-1.547zm5.064 6.895a9.253 9.253 0 0 0-3.762.794l-1.619-2.129a6.29 6.29 0 0 0 1.967-3.477 6.308 6.308 0 0 0 .077-1.942l4.673.637-.835 6.132a9.249 9.249 0 0 0-.501-.015zm0 1.69c1.479 0 2.893.422 4.107 1.204a4.648 4.648 0 0 1-8.232.012 7.541 7.541 0 0 1 4.125-1.216zm10.439 3.449l-1.336-.183 1.874-13.725 1.335.182-1.873 13.726zm-5.345-10.744a.844.844 0 0 0 .951-.723 3.09 3.09 0 0 1 3.257-2.659l-1.735 12.706-.999-.999a9.233 9.233 0 0 0-4.396-2.465l.837-6.145 2.085.285zm-15.607-1.088a9.26 9.26 0 0 0-2.587 3.038l-3.876-3.876s.003-4.91.005-4.976h9.906c.003.066.005 4.175.005 4.175a9.257 9.257 0 0 0-3.453 1.639zm-1.506-10.575c1.327 0 2.571.515 3.506 1.452a4.926 4.926 0 0 1 1.083 1.619h-9.176a4.946 4.946 0 0 1 1.081-1.619 4.93 4.93 0 0 1 3.506-1.452zm-5.925 11.158s4.115 4.106 4.156 4.135a9.492 9.492 0 0 0-.31 1.424l-.07.517-6.075-6.075 2.299-.001zm7.76 12.447l-2.601 2.601-15.015-15.014a13.027 13.027 0 0 0 1.931-3.271l15.685 15.684zm-16.41-20.6c0 .394-.02.782-.059 1.165-2.771 2.692-6.513 3.83-9.739 2.994a4.294 4.294 0 0 0-1.255-2.803 4.3 4.3 0 0 0-3.609-1.229c-1.59-3.45-.545-7.947 2.662-11.154.119-.119.235-.229.35-.335.093-.002.186-.007.28-.007 6.269-.001 11.37 5.1 11.37 11.369zm-14.113 1.777c.705 0 1.367.275 1.866.773.499.499.773 1.161.773 1.866s-.274 1.368-.773 1.866a2.62 2.62 0 0 1-1.866.773 2.618 2.618 0 0 1-1.866-.773c-.499-.498-.773-1.161-.773-1.866s.274-1.368.773-1.866a2.62 2.62 0 0 1 1.866-.773zm-.178-12.765c-2.784 3.527-3.566 8.032-1.982 11.656a4.349 4.349 0 0 0-.901.688 4.296 4.296 0 0 0-1.268 3.06c0 1.156.451 2.243 1.268 3.061s1.904 1.268 3.061 1.268c1.156 0 2.243-.45 3.06-1.268a4.287 4.287 0 0 0 1.023-1.635 10.3 10.3 0 0 0 2.378.276c2.387 0 4.839-.792 6.98-2.271-1.58 4.383-5.779 7.524-10.699 7.524-6.27 0-11.371-5.101-11.371-11.371.001-5.259 3.592-9.695 8.451-10.988zm-2.377 26.436l-11.283-11.283 3.536-3.536c.24 5.047 3.36 9.35 7.747 11.305v3.514zm-8.984-.648l2.974-2.974 1.332 1.332-2.974 2.974-1.332-1.332zm-4.708-6.467a4.22 4.22 0 0 1 1.216-2.973l5.271 5.271-2.974 2.974-2.269-2.269a4.217 4.217 0 0 1-1.244-3.003zm7.234 8.994l2.974-2.974 3.484 3.484v5.948l-6.458-6.458zm8.264 11.577a4.314 4.314 0 0 1 4.857.879c1.368 1.368 1.641 3.503.727 5.164a7.627 7.627 0 0 1-5.584-6.043zm7.346 6.279a5.972 5.972 0 0 0-.56-5.704l4.209-4.21h5.005c.066 0 .132.002.198.005v9.908c-.065.002-8.806.002-8.852.001zm13.614-4.955a4.967 4.967 0 0 1-3.072 4.585v-9.17a4.967 4.967 0 0 1 3.072 4.585zm10.949 6.12c-5.674 5.674-14.795 5.85-20.682.528h4.774c3.666 0 6.648-2.982 6.648-6.648s-2.982-6.648-6.648-6.648h-4.51v-9.367a.845.845 0 1 0-1.69 0v9.862l-4.149 4.148a6 6 0 0 0-5.769-1.088v-14.585a13.01 13.01 0 0 0 12.629-3.119l14.964 14.964-2.046 2.047a.844.844 0 1 0 1.194 1.194l9.38-9.381a6.34 6.34 0 0 0 4.607 3.029v6.391l-8.702 8.673zm12.816-6.249l7.013-7.013 1.487 1.487c.33.33.864.33 1.194 0a3.085 3.085 0 0 1 4.199-.146l-9.787 9.787-4.106-4.115zm6.254 6.263l-.953-.953 9.795-9.795.953.953-9.795 9.795z"></path></g><!----></svg>